<svg width="17" height="17" viewBox="0 0 17 17" fill="none" xmlns="http://www.w3.org/2000/svg">
    <path d="M8.5 1.41666C4.55537 1.41666 1.41666 4.55537 1.41666 8.5C1.41666 12.4446 4.55537 15.5833 8.5 15.5833C12.4446 15.5833 15.5833 12.4446 15.5833 8.5C15.5833 4.55537 12.4446 1.41666 8.5 1.41666ZM8.5 14.1667C5.29687 14.1667 2.83333 11.7031 2.83333 8.5C2.83333 5.29687 5.29687 2.83333 8.5 2.83333C11.7031 2.83333 14.1667 5.29687 14.1667 8.5C14.1667 11.7031 11.7031 14.1667 8.5 14.1667ZM9.27083 8.50001H11.3333C11.563 8.50001 11.75 8.313 11.75 8.08334C11.75 7.85367 11.563 7.66667 11.3333 7.66667H8.5V4.95834C8.5 4.72867 8.313 4.54167 8.08333 4.54167C7.85367 4.54167 7.66667 4.72867 7.66667 4.95834V8.08334C7.66667 8.08334 7.66667 8.08334 7.66667 8.09334C7.66667 8.323 7.85367 8.50001 8.08333 8.50001H9.27083Z" fill="#2D8CFF"/>
</svg>
